<?xml version="1.0" encoding="utf-8"?>
<!-- Generator: Adobe Illustrator 15.0.2, SVG Export Plug-In . SVG Version: 6.00 Build 0)  -->
<!DOCTYPE svg PUBLIC "-//W3C//DTD SVG 1.1//EN" "http://www.w3.org/Graphics/SVG/1.1/DTD/svg11.dtd">
<svg version="1.1" id="Layer_1" xmlns="http://www.w3.org/2000/svg" xmlns:xlink="http://www.w3.org/1999/xlink" x="0px" y="0px"
	 width="1150.679px" height="769.987px" viewBox="0 0 1150.679 769.987" enable-background="new 0 0 1150.679 769.987"
	 xml:space="preserve">
<g>
	<path fill-rule="evenodd" clip-rule="evenodd" fill="#1F5394" d="M1115.936,688.543c0.134-9.971-1.41-17.739-4.622-23.295
		c-3.813-6.425-9.704-9.637-17.672-9.637h-24.205c-2.536,0-4.681-0.91-6.424-2.712c-1.802-1.811-2.678-4.021-2.612-6.633
		c0.067-2.536,1.01-4.748,2.812-6.625c1.877-1.877,4.122-2.812,6.733-2.812h24.697c17.605,0,31.264,4.623,40.976,13.859
		c8.436,8.035,12.649,17.905,12.649,29.62c0,8.235-2.879,16.204-8.636,23.905c-2.879,3.479-4.856,5.924-5.924,7.326
		c-1.811,2.344-2.712,4.155-2.712,5.423c0,3.146,1.677,4.723,5.022,4.723h6.024c2.411,0,4.447,0.934,6.124,2.812
		c1.678,1.803,2.512,4.014,2.512,6.625c0,2.678-0.834,4.923-2.512,6.725c-1.677,1.878-3.713,2.813-6.124,2.813h-73.708
		c-2.412,0-4.447-0.935-6.125-2.813c-1.677-1.802-2.511-4.047-2.511-6.725c0-2.611,0.834-4.822,2.511-6.625
		c1.677-1.877,3.713-2.812,6.125-2.812h23.796l0.208-0.101l4.914-0.2c5.624-1.276,10.113-4.956,13.459-11.047
		C1113.925,704.446,1115.669,697.179,1115.936,688.543z"/>
	<path fill-rule="evenodd" clip-rule="evenodd" fill="#1F5394" d="M964.607,651.289c7.834,8.369,11.581,20.283,11.247,35.752
		c-0.267,12.916-4.756,24.53-13.458,34.843c-8.903,10.571-19.917,16.871-33.041,18.873c-2.878,0.476-4.948,0.709-6.224,0.709
		l-3.413-0.509c-1.944-0.534-3.513-1.602-4.723-3.212c-1.268-1.735-1.902-3.646-1.902-5.724c0.2-2.403,0.968-4.48,2.303-6.225
		c1.744-2.145,4.155-3.212,7.234-3.212c4.414,0,8.703-2.178,12.858-6.525c5.214-5.49,7.826-12.724,7.826-21.693v-5.824
		c0.133-9.904-1.402-17.639-4.614-23.195c-3.754-6.425-9.612-9.637-17.572-9.637h-42.786c-2.536,0-4.681-0.91-6.424-2.712
		c-1.802-1.877-2.712-4.122-2.712-6.733c0.134-2.536,1.11-4.748,2.912-6.625c1.944-1.877,4.188-2.812,6.733-2.812h43.178
		C941.445,636.83,955.638,641.652,964.607,651.289z"/>
	<path fill-rule="evenodd" clip-rule="evenodd" fill="#1F5394" d="M906.36,685.031c-0.067,43.378-0.067,65.072,0,65.072
		c0,6.158-1.668,11.072-5.015,14.76c-3.02,3.346-6.7,5.057-11.047,5.123c-4.422,0.067-8.135-1.543-11.147-4.822
		c-3.346-3.613-5.023-8.502-5.023-14.66l0.2-66.373c0-4.556,1.035-8.569,3.112-12.057c2.878-4.748,7.234-7.125,13.058-7.125
		c5.824,0,10.138,2.478,12.95,7.434C905.393,675.928,906.36,680.142,906.36,685.031z"/>
	<path fill-rule="evenodd" clip-rule="evenodd" fill="#1F5394" d="M1041.127,636.83c2.678,0,4.948,0.901,6.825,2.712
		c1.877,1.811,2.845,4.013,2.912,6.625c0.133,2.478-0.734,4.689-2.611,6.633c-1.877,1.869-4.08,2.812-6.625,2.812
		c-1.877-0.067-3.755,0.267-5.624,1.001c-3.755,1.469-5.624,4.289-5.624,8.436c0,2.545,0.801,5.957,2.411,10.238
		c1.602,4.289,2.403,9.011,2.403,14.167l-0.092,37.654c0,1.535-0.208,2.945-0.609,4.214c-0.734,3.68-2.778,6.491-6.125,8.436
		c-3.012,1.877-6.424,2.678-10.237,2.411c-3.955-0.267-7.201-1.544-9.746-3.813c-2.878-2.544-4.313-5.865-4.313-9.945v-53.625
		c0-7.826-4.021-13.95-12.057-18.373c-5.081-2.812-7.86-4.389-8.335-4.723c-2.603-1.869-3.946-4.113-4.013-6.725
		c-0.067-2.612,0.834-4.656,2.712-6.125c1.944-1.477,4.789-2.211,8.536-2.211h29.019v0.2H1041.127z"/>
	<path fill-rule="evenodd" clip-rule="evenodd" fill="#1F5394" d="M531.506,132.736c-11.314,9.708-16.971,21.189-16.971,34.443
		c0,10.914,2.445,20.45,7.334,28.619c3.279,5.49,8.665,11.514,16.166,18.076c8.569,7.497,13.955,12.687,16.166,15.565
		c4.956,6.357,7.468,13.42,7.534,21.188v53.62c0,7.902-2.511,15.131-7.534,21.689c-2.478,3.283-7.964,8.669-16.466,16.17
		c-7.701,6.758-13.191,12.783-16.47,18.072c-5.023,7.901-7.53,17.004-7.53,27.313c0,13.454,5.457,24.968,16.366,34.547
		c10.98,9.503,24.167,14.259,39.565,14.259c14.664,0,27.546-4.756,38.66-14.259c11.248-9.712,16.871-21.226,16.871-34.547
		c0-10.909-2.478-20.45-7.434-28.619c-3.346-5.49-8.836-11.481-16.462-17.972c-8.711-7.501-14.193-12.687-16.471-15.565
		c-5.023-6.291-7.567-13.354-7.634-21.189v-53.22c0-7.968,2.545-15.231,7.634-21.79c2.545-3.35,8.135-8.807,16.771-16.37
		c7.826-6.829,13.417-12.887,16.771-18.176c5.082-7.964,7.626-17.104,7.626-27.413c0-13.454-5.457-24.935-16.37-34.443
		c-10.972-9.574-24.163-14.359-39.561-14.359C555.406,118.377,542.553,123.162,531.506,132.736z M810.768,89.254
		c9.437,26.111,8.135,54.463-3.922,85.055c-11.647,29.524-32.064,58.143-61.25,85.856c38.156,22.828,66.307,47.496,84.455,74.008
		c19.073,27.847,26.274,56.67,21.585,86.457c-3.68,23.638-15.728,45.156-36.145,64.571c-19.082,18.206-44.288,33.508-75.618,45.89
		c-30.262,11.981-63.662,20.217-100.215,24.706c-36.887,4.614-73.607,5.014-110.157,1.201
		c-45.39-4.689-88.568-17.238-129.539-37.655c-36.821-18.281-68.051-40.875-93.691-67.784c14.331-9.704,27.15-21.251,38.46-34.643
		c11.385-13.392,20.688-28.051,27.918-43.983c11.247-25.102,16.871-51.38,16.871-78.827c0-26.107-5.057-51.046-15.165-74.809
		c-5.957-13.925-12.415-25.807-19.378-35.648c-11.919-16.871-27.25-31.931-45.994-45.189c19.95-22.357,44.184-42.812,72.702-61.355
		c29.524-19.278,61.722-35.311,96.603-48.101C515.507,15.35,552.628,6.48,589.645,2.396c35.752-3.884,68.96-3.045,99.615,2.507
		c30.729,5.561,56.503,15.432,77.32,29.624C788.14,49.188,802.866,67.431,810.768,89.254z"/>
	<path fill-rule="evenodd" clip-rule="evenodd" fill="#1F5394" d="M80.837,655.511c-4.618-4.289-10.58-6.433-17.876-6.433H36.353
		c-1.139,0-1.71,0.567-1.71,1.71v64.463c0,7.701-2.307,13.892-6.929,18.582c-4.485,4.556-10.275,6.825-17.372,6.825
		c-4.551,0-7.997-0.701-10.342-2.103c0.334-2.278,0.905-4.656,1.706-7.135c2.412,0.802,4.418,1.21,6.028,1.21
		c3.346,0,6.225-1.076,8.632-3.221c3.283-2.945,4.922-7.559,4.922-13.85v-66.182c0-2.403,0.739-4.347,2.211-5.824
		c1.739-1.802,4.451-2.712,8.131-2.712h38.06c8.769,0,16.266,3.121,22.494,9.345c6.225,6.224,9.336,13.725,9.336,22.494v66.374
		H88.267v-64.571C88.267,666.45,85.789,660.125,80.837,655.511z M113.269,640.843h13.358v50.913
		c-1.811,1.076-3.917,2.344-6.329,3.821c-2.006,1.068-4.351,1.802-7.029,2.203V640.843z M136.164,644.965
		c0.138-1.202,0.267-2.579,0.404-4.122h34.343c13.254,0,23.563,4.389,30.925,13.158c7.167,8.435,10.747,19.883,10.747,34.342
		c0,9.303-1.939,17.838-5.824,25.606c-3.817,7.568-8.869,13.225-15.165,16.971h24.101c0.334,2.478,0.4,5.189,0.2,8.135h-80.433
		c-0.2-2.611-0.2-5.323,0-8.135h32.436c9.704,0,17.338-4.021,22.895-12.048c5.219-7.501,7.831-17.205,7.831-29.127
		c0-12.182-2.512-21.819-7.53-28.911c-5.49-7.768-13.421-11.656-23.8-11.656h-30.726
		C136.235,647.176,136.097,645.766,136.164,644.965z"/>
	<path fill-rule="evenodd" clip-rule="evenodd" fill="#1F5394" d="M309.887,730.921c0.333,2.478,0.4,5.189,0.2,8.135h-80.533
		c-0.2-2.611-0.2-5.323,0-8.135h32.536c9.704,0,17.338-4.021,22.895-12.048c5.219-7.501,7.83-17.205,7.83-29.127
		c0-12.182-2.511-21.819-7.53-28.911c-5.49-7.768-13.425-11.656-23.8-11.656H230.76c-0.338-2.002-0.471-3.413-0.405-4.213
		c0.134-1.202,0.271-2.579,0.405-4.122h34.242c13.254,0,23.596,4.389,31.026,13.158c7.163,8.435,10.747,19.883,10.747,34.342
		c0,9.303-1.944,17.838-5.824,25.606c-3.817,7.568-8.874,13.225-15.165,16.971H309.887z"/>
	<path fill-rule="evenodd" clip-rule="evenodd" fill="#1F5394" d="M552.395,690.354v-17.472c0-6.232-1.206-11.314-3.617-15.269
		c-3.146-5.223-8.198-7.827-15.16-7.827c-2.812,0-5.958,0.701-9.441,2.103c-3.079,1.344-5.857,2.945-8.335,4.823
		c-0.935-0.667-1.94-1.811-3.012-3.413c-1.139-1.744-1.906-2.912-2.307-3.513c8.969-6.366,18.439-9.545,28.414-9.545
		c9.441,0,16.504,3.212,21.188,9.645c3.884,5.349,5.824,12.516,5.824,21.485v18.373c0,15.603-3.313,27.951-9.941,37.054
		c-7.163,9.912-17.505,14.868-31.026,14.868c-15.332,0-26.879-5.223-34.647-15.669c-6.758-9.103-10.142-21.185-10.142-36.253
		v-48.902h13.358v50.713c0,13.325,2.374,23.396,7.13,30.229c5.219,7.493,13.32,11.247,24.301,11.247
		c10.509,0,18.039-4.956,22.594-14.859C550.788,711.205,552.395,701.935,552.395,690.354z M446.355,640.843h13.254v98.213h-13.254
		V640.843z M411.508,689.745c0-12.115-2.545-21.752-7.63-28.911c-5.49-7.768-13.392-11.656-23.7-11.656h-30.726
		c-0.333-2.002-0.471-3.413-0.405-4.213c0.138-1.202,0.271-2.579,0.405-4.122h34.242c13.254,0,23.563,4.389,30.926,13.158
		c7.163,8.435,10.747,19.883,10.747,34.342c0,9.303-1.94,17.838-5.824,25.606c-3.817,7.568-8.869,13.225-15.165,16.971h24.101
		c0.333,2.478,0.4,5.189,0.2,8.135h-80.433c-0.2-2.611-0.2-5.323,0-8.135h32.536c9.704,0,17.338-4.021,22.895-12.048
		C408.896,711.305,411.508,701.601,411.508,689.745z"/>
	<path fill-rule="evenodd" clip-rule="evenodd" fill="#1F5394" d="M697.294,689.745c0-12.115-2.545-21.752-7.626-28.911
		c-5.557-7.768-13.525-11.656-23.904-11.656h-28.719c-0.333-2.002-0.467-3.413-0.4-4.213c0.134-1.202,0.267-2.579,0.4-4.122h30.329
		c14.259,0,25.231,4.589,32.933,13.759c7.167,8.636,10.747,20.35,10.747,35.144c0,14.125-3.813,25.782-11.448,34.951
		c-7.968,9.57-18.506,14.359-31.63,14.359h-30.93c-0.2-2.411-0.3-3.746-0.3-4.021c0-0.334,0.1-1.702,0.3-4.113h29.32
		c9.579,0,17.238-4.247,22.995-12.749C694.649,710.404,697.294,700.925,697.294,689.745z M726.313,677.396
		c4.289-2.211,8.703-3.646,13.258-4.314v65.973h-13.258V677.396z M792.695,676.795c0-9.103-2.445-16.036-7.334-20.784
		c-4.756-4.623-11.347-6.934-19.783-6.934h-39.465c-0.267-2.069-0.4-3.379-0.4-3.913c0-0.601,0.133-2.044,0.4-4.322h43.178
		c11.856,0,20.926,3.121,27.217,9.345c6.291,6.157,9.437,15.16,9.437,27.008v61.859h-13.25V676.795z M622.285,691.756
		c-1.811,1.076-3.913,2.344-6.324,3.821c-1.944,1.068-4.255,1.802-6.934,2.203v-56.937h13.258V691.756z"/>
	<path fill-rule="evenodd" clip-rule="evenodd" fill="#1F5394" d="M856.157,735.644c0,1.735-0.601,3.245-1.811,4.514
		c-1.202,1.21-2.678,1.811-4.414,1.811c-1.744,0-3.221-0.601-4.422-1.811c-1.202-1.269-1.811-2.778-1.811-4.514
		c0-1.678,0.609-3.154,1.811-4.423c1.277-1.201,2.745-1.811,4.422-1.811c1.735,0,3.212,0.609,4.414,1.811
		C855.556,732.423,856.157,733.899,856.157,735.644z"/>
</g>
</svg>
