<?xml version="1.0" encoding="UTF-8" standalone="no"?>
<!-- Created with Inkscape (http://www.inkscape.org/) -->

<svg
   xmlns:dc="http://purl.org/dc/elements/1.1/"
   xmlns:cc="http://creativecommons.org/ns#"
   xmlns:rdf="http://www.w3.org/1999/02/22-rdf-syntax-ns#"
   xmlns:svg="http://www.w3.org/2000/svg"
   xmlns="http://www.w3.org/2000/svg"
   xmlns:sodipodi="http://sodipodi.sourceforge.net/DTD/sodipodi-0.dtd"
   xmlns:inkscape="http://www.inkscape.org/namespaces/inkscape"
   width="1531.0146"
   height="2070.8635"
   id="svg2"
   sodipodi:version="0.32"
   inkscape:version="0.48.2 r9819"
   version="1.0"
   sodipodi:docname="Pelephone-logo.svg"
   inkscape:output_extension="org.inkscape.output.svg.inkscape">
  <defs
     id="defs4">
    <inkscape:perspective
       sodipodi:type="inkscape:persp3d"
       inkscape:vp_x="0 : 526.18109 : 1"
       inkscape:vp_y="0 : 1000 : 0"
       inkscape:vp_z="744.09448 : 526.18109 : 1"
       inkscape:persp3d-origin="372.04724 : 350.78739 : 1"
       id="perspective10" />
    <inkscape:perspective
       id="perspective2435"
       inkscape:persp3d-origin="372.04724 : 350.78739 : 1"
       inkscape:vp_z="744.09448 : 526.18109 : 1"
       inkscape:vp_y="0 : 1000 : 0"
       inkscape:vp_x="0 : 526.18109 : 1"
       sodipodi:type="inkscape:persp3d" />
    <inkscape:perspective
       id="perspective2538"
       inkscape:persp3d-origin="372.04724 : 350.78739 : 1"
       inkscape:vp_z="744.09448 : 526.18109 : 1"
       inkscape:vp_y="0 : 1000 : 0"
       inkscape:vp_x="0 : 526.18109 : 1"
       sodipodi:type="inkscape:persp3d" />
    <clipPath
       clipPathUnits="userSpaceOnUse"
       id="clipPath2550">
      <rect
         style="fill:#0168b7;fill-opacity:1;stroke:none"
         id="rect2552"
         width="18.365137"
         height="32.794888"
         x="685.70166"
         y="1157.186" />
    </clipPath>
    <inkscape:perspective
       id="perspective2565"
       inkscape:persp3d-origin="372.04724 : 350.78739 : 1"
       inkscape:vp_z="744.09448 : 526.18109 : 1"
       inkscape:vp_y="0 : 1000 : 0"
       inkscape:vp_x="0 : 526.18109 : 1"
       sodipodi:type="inkscape:persp3d" />
  </defs>
  <sodipodi:namedview
     id="base"
     pagecolor="#ffffff"
     bordercolor="#666666"
     borderopacity="1.0"
     gridtolerance="10000"
     guidetolerance="10"
     objecttolerance="10"
     inkscape:pageopacity="0.0"
     inkscape:pageshadow="2"
     inkscape:zoom="0.35878753"
     inkscape:cx="765.50729"
     inkscape:cy="1035.4318"
     inkscape:document-units="px"
     inkscape:current-layer="layer1"
     showgrid="false"
     showguides="false"
     inkscape:guide-bbox="true"
     units=""
     inkscape:window-width="1280"
     inkscape:window-height="962"
     inkscape:window-x="-8"
     inkscape:window-y="-8"
     fit-margin-top="0"
     fit-margin-left="0"
     fit-margin-right="0"
     fit-margin-bottom="0"
     inkscape:window-maximized="1">
    <sodipodi:guide
       orientation="1,0"
       position="280.99318,540.27805"
       id="guide2466" />
    <sodipodi:guide
       orientation="1,0"
       position="286.05955,543.57118"
       id="guide2468" />
    <sodipodi:guide
       orientation="1,0"
       position="290.11264,544.58446"
       id="guide2470" />
    <sodipodi:guide
       orientation="1,0"
       position="294.92569,545.34441"
       id="guide2472" />
    <sodipodi:guide
       orientation="1,0"
       position="341.15682,545.78477"
       id="guide2474" />
    <sodipodi:guide
       orientation="1,0"
       position="345.11119,544.54197"
       id="guide2476" />
    <sodipodi:guide
       orientation="1,0"
       position="305.31173,581.56892"
       id="guide2478" />
    <sodipodi:guide
       orientation="1,0"
       position="378.2674,529.13204"
       id="guide2480" />
    <sodipodi:guide
       orientation="0,1"
       position="326.33715,549.90414"
       id="guide2482" />
    <sodipodi:guide
       orientation="0,1"
       position="290.99284,516.1835"
       id="guide2484" />
    <sodipodi:guide
       orientation="0,1"
       position="328.11038,523.30572"
       id="guide2486" />
    <sodipodi:guide
       orientation="0,1"
       position="332.45721,552.4507"
       id="guide2494" />
    <sodipodi:guide
       orientation="1,0"
       position="342.17366,526.69082"
       id="guide2498" />
    <sodipodi:guide
       orientation="0,1"
       position="348.1617,525.561"
       id="guide2500" />
    <sodipodi:guide
       orientation="0.79863551,0.60181502"
       position="655.26727,333.46262"
       id="guide2556" />
  </sodipodi:namedview>
  <metadata
     id="metadata7">
    <rdf:RDF>
      <cc:Work
         rdf:about="">
        <dc:format>image/svg+xml</dc:format>
        <dc:type
           rdf:resource="http://purl.org/dc/dcmitype/StillImage" />
      </cc:Work>
    </rdf:RDF>
  </metadata>
  <g
     inkscape:label="Layer 1"
     inkscape:groupmode="layer"
     id="layer1"
     transform="translate(429.55492,635.07568)">
    <g
       transform="matrix(27.830927,0,0,-27.830927,-9418.934,9403.2227)"
       id="g12208">
      <path
         inkscape:connector-curvature="0"
         id="path1824"
         style="fill:#0072b6;fill-opacity:1;fill-rule:nonzero;stroke:none"
         d="m 324.504,338.019 c -0.758,-3.473 -1.241,-6.703 -1.421,-9.576 -0.173,-2.781 -0.088,-5.505 0.361,-8.083 2.794,-16.014 17.096,-18.469 32.661,-14.546 28.081,7.342 26.401,27.039 10.469,43.464 -17.713,17.98 -35.984,15.064 -42.07,-11.259" />
      <path
         inkscape:connector-curvature="0"
         id="path1826"
         style="fill:#ffffff;fill-opacity:1;fill-rule:nonzero;stroke:none"
         d="m 353.744,345.21 c -2.015,1.738 -3.893,1.251 -4.24,-1.529 -0.07,-0.348 -0.07,-0.696 -0.07,-1.043 0,-0.277 0,-0.555 0.07,-0.834 0.486,-1.599 1.946,-1.739 3.545,-1.181 2.849,0.972 2.502,3.058 0.695,4.587 m 7.021,-1.46 c 1.112,-2.363 0.557,-4.727 -3.266,-6.187 -0.557,-0.208 -1.183,-0.347 -1.81,-0.486 -0.625,-0.139 -1.25,-0.208 -1.876,-0.348 -0.972,-0.139 -1.808,-0.347 -2.363,-0.626 -0.209,-2.293 -0.487,-4.45 -0.904,-6.325 0,-0.139 -0.069,-0.348 -0.069,-0.487 -0.209,-0.904 -0.417,-1.738 -0.695,-2.434 -1.599,-4.865 -6.674,-5.769 -8.62,-0.416 -1.739,4.936 -3.267,16.614 -0.626,22.106 1.459,2.989 2.92,3.267 5.005,3.267 3.267,0 6.674,-0.972 9.871,-2.85 1.946,-1.112 4.38,-3.128 5.353,-5.214" />
      <path
         inkscape:connector-curvature="0"
         id="path1828"
         style="fill:#ffffff;fill-opacity:1;fill-rule:nonzero;stroke:none"
         d="m 348.808,318.029 c -2.919,3.128 -5.7,2.641 -7.299,-1.39 -1.668,-4.449 1.113,-6.049 4.866,-5.285 3.754,0.697 5.702,3.269 2.433,6.675" />
      <path
         inkscape:connector-curvature="0"
         id="path1830"
         style="fill:#0072b6;fill-opacity:1;fill-rule:nonzero;stroke:none"
         d="m 371.001,293.942 c 0,2.726 -1.757,4.487 -4.484,4.487 -2.725,0 -4.133,-1.583 -4.133,-3.255 0,-1.934 1.845,-2.902 3.429,-2.902 0.528,0 1.232,0.352 1.496,0.617 0.352,0.351 0.528,0.879 0.088,1.23 -0.265,-0.264 -0.88,-0.351 -1.232,-0.351 -0.879,0 -1.671,0.614 -1.671,1.494 0,0.967 0.792,1.759 2.023,1.759 1.144,0 2.374,-1.144 2.374,-3.079 0,-2.021 -1.494,-3.165 -3.164,-3.165 -0.968,0 -1.848,0.44 -2.464,1.055 -0.439,-0.352 -0.528,-1.319 0,-1.758 0.704,-0.529 1.583,-0.792 2.902,-0.792 2.726,0 4.836,1.847 4.836,4.66" />
      <path
         inkscape:connector-curvature="0"
         id="path1832"
         style="fill:#0072b6;fill-opacity:1;fill-rule:nonzero;stroke:none"
         d="m 361.152,294.47 c 0,2.903 -2.197,3.959 -4.486,3.959 l -0.175,0 0,2.55 c -0.439,0.614 -1.671,0.614 -2.11,0 l 0,-2.99 0,-0.264 c 0,-0.352 0.089,-0.618 0.352,-0.879 l 1.582,0 c 1.76,0 2.64,-1.232 2.64,-2.464 0,-1.758 -1.497,-3.43 -3.694,-3.781 -0.352,-0.264 -0.352,-1.056 -0.089,-1.319 2.992,0.176 5.98,2.11 5.98,5.188" />
      <path
         inkscape:connector-curvature="0"
         id="path1834"
         style="fill:#0072b6;fill-opacity:1;fill-rule:nonzero;stroke:none"
         d="m 353.149,289.722 -2.373,2.989 c 1.055,1.144 2.109,3.166 2.198,5.278 -0.528,0.527 -1.672,0.527 -2.198,0 0,-1.321 -0.264,-3.255 -0.791,-4.221 l -3.343,4.221 c -0.616,0.614 -2.022,0.44 -2.374,0 l 2.111,-2.727 c -0.881,-0.88 -1.847,-2.902 -2.024,-5.541 0.528,-0.527 1.584,-0.527 2.111,0 0,1.408 0.264,3.519 0.792,4.486 l 3.43,-4.485 c 0.791,-0.528 2.197,-0.528 2.461,0" />
      <path
         inkscape:connector-curvature="0"
         id="path1836"
         style="fill:#0072b6;fill-opacity:1;fill-rule:nonzero;stroke:none"
         d="m 343.476,293.942 c 0,2.726 -1.758,4.487 -4.485,4.487 -2.725,0 -4.134,-1.583 -4.134,-3.255 0,-1.935 1.847,-2.902 3.431,-2.902 0.527,0 1.231,0.352 1.495,0.617 0.351,0.35 0.528,0.879 0.087,1.23 -0.264,-0.264 -0.879,-0.351 -1.231,-0.351 -0.879,0 -1.671,0.614 -1.671,1.494 0,0.967 0.792,1.759 2.023,1.759 1.143,0 2.375,-1.144 2.375,-3.079 0,-2.021 -1.496,-3.165 -3.165,-3.165 -0.968,0 -1.848,0.44 -2.464,1.055 -0.439,-0.352 -0.527,-1.319 0,-1.758 0.705,-0.529 1.583,-0.792 2.902,-0.792 2.727,0 4.837,1.847 4.837,4.66" />
      <path
         inkscape:connector-curvature="0"
         id="path1838"
         style="fill:#0072b6;fill-opacity:1;fill-rule:nonzero;stroke:none"
         d="m 333.715,289.721 0,8.268 c -0.44,0.527 -1.758,0.44 -2.111,0 l 0,-8.268 c 0.439,-0.527 1.671,-0.527 2.111,0" />
      <path
         inkscape:connector-curvature="0"
         id="path1840"
         style="fill:#0072b6;fill-opacity:1;fill-rule:nonzero;stroke:none"
         d="m 329.846,286.644 0,11.345 c -0.352,0.527 -1.76,0.44 -2.111,0 l 0,-11.345 c 0.438,-0.441 1.671,-0.528 2.111,0" />
    </g>
  </g>
</svg>
